<svg width="156" height="32" viewBox="0 0 156 32" fill="none" xmlns="http://www.w3.org/2000/svg">
<path d="M51.0249 24.8C55.0098 24.8 57.6101 22.7057 57.6101 19.4967C57.6101 11.7951 48.1544 15.8486 48.1544 12.1667C48.1544 11.0182 49.1338 10.3426 50.6197 10.3426C51.8395 10.3426 53.1752 11.038 53.5535 12.4021C53.6067 12.5938 53.7725 12.7409 53.9714 12.7409H56.985C57.2148 12.7409 57.399 12.5475 57.3715 12.3193C57.0006 9.24543 54.3315 7.23496 50.5184 7.23496C47.0062 7.23496 44.4059 9.32926 44.4059 12.3018C44.4059 19.4967 53.7265 15.8824 53.7265 19.6656C53.7265 20.679 52.6459 21.4897 51.0249 21.4897C49.3082 21.4897 48.1107 20.624 47.8059 19.2126C47.7625 19.0115 47.5929 18.8549 47.3873 18.8549H44.3914C44.1608 18.8549 43.9766 19.0495 44.0024 19.2786C44.3866 22.68 47.0668 24.8 51.0249 24.8Z" fill="white"/>
<path d="M61.3605 7.50519H59.2219C59.0001 7.50519 58.8203 7.68502 58.8203 7.90685V10.5828C58.8203 10.8046 59.0001 10.9844 59.2219 10.9844H61.3605V18.5847C61.3605 22.3679 63.792 24.5298 67.5067 24.5298H69.0375C69.2592 24.5298 69.439 24.35 69.439 24.1281V21.182C69.439 20.9602 69.2592 20.7803 69.0375 20.7803H67.9795C66.4261 20.7803 65.5143 19.9021 65.5143 18.1794V10.9844H69.0375C69.2592 10.9844 69.439 10.8046 69.439 10.5828V7.90685C69.439 7.68502 69.2592 7.50519 69.0375 7.50519H65.5143V3.97245C65.5143 3.75062 65.3345 3.57079 65.1127 3.57079H61.7621C61.5403 3.57079 61.3605 3.75062 61.3605 3.97245V7.50519Z" fill="white"/>
<path d="M81.5734 7.90685C81.5734 7.68502 81.3936 7.50519 81.1719 7.50519H80.3841C78.189 7.50519 76.8719 8.34967 76.0277 10.5115V7.90685C76.0277 7.68502 75.8479 7.50519 75.6261 7.50519H72.2755C72.0537 7.50519 71.8739 7.68502 71.8739 7.90685V24.5298H76.0277V16.4904C76.0277 13.2476 77.0746 11.3844 79.7087 11.3844H81.1719C81.3936 11.3844 81.5734 11.2046 81.5734 10.9828V7.90685Z" fill="white"/>
<path d="M90.2168 7.23496C85.9802 7.23496 83.1682 9.65136 82.7598 12.8227C82.7302 13.0521 82.9149 13.2476 83.1461 13.2476H86.0504C86.2653 13.2476 86.439 13.0775 86.4781 12.8662C86.7308 11.5035 88.0045 10.3426 90.0142 10.3426C92.2093 10.3426 93.4925 11.5249 93.4925 13.1801C93.4925 13.8556 93.0873 14.3285 92.243 14.3285H89.1024C85.2863 14.3285 82.7198 16.3891 82.7198 19.6994C82.7198 22.6382 85.0162 24.8 88.3932 24.8C90.8247 24.8 92.7834 23.6853 93.4925 21.9964V24.1281C93.4925 24.35 93.6723 24.5298 93.8941 24.5298H97.1772C97.399 24.5298 97.5788 24.35 97.5788 24.1281V13.5854C97.5788 9.7346 94.5394 7.23496 90.2168 7.23496ZM89.3725 21.7261C87.8191 21.7261 86.7385 20.8479 86.7385 19.5305C86.7385 18.0442 87.9204 17.0646 89.6765 17.0646H93.4925V17.3349C93.4925 19.9021 91.9729 21.7261 89.3725 21.7261Z" fill="white"/>
<path d="M101.82 7.50519H99.6818C99.46 7.50519 99.2802 7.68502 99.2802 7.90685V10.5828C99.2802 10.8046 99.46 10.9844 99.6818 10.9844H101.82V18.5847C101.82 22.3679 104.252 24.5298 107.967 24.5298H109.497C109.719 24.5298 109.899 24.35 109.899 24.1281V21.182C109.899 20.9602 109.719 20.7803 109.497 20.7803H108.439C106.886 20.7803 105.974 19.9021 105.974 18.1794V10.9844H109.497C109.719 10.9844 109.899 10.8046 109.899 10.5828V7.90685C109.899 7.68502 109.719 7.50519 109.497 7.50519H105.974V3.97245C105.974 3.75062 105.794 3.57079 105.573 3.57079H102.222C102 3.57079 101.82 3.75062 101.82 3.97245V7.50519Z" fill="white"/>
<path d="M118.894 7.23496C114.657 7.23496 111.845 9.65136 111.437 12.8227C111.407 13.0521 111.592 13.2476 111.823 13.2476H114.728C114.942 13.2476 115.116 13.0775 115.155 12.8662C115.408 11.5035 116.682 10.3426 118.691 10.3426C120.886 10.3426 122.17 11.5249 122.17 13.1801C122.17 13.8556 121.764 14.3285 120.92 14.3285H117.78C113.963 14.3285 111.397 16.3891 111.397 19.6994C111.397 22.6382 113.693 24.8 117.07 24.8C119.502 24.8 121.461 23.6853 122.17 21.9964V24.1281C122.17 24.35 122.349 24.5298 122.571 24.5298H125.854C126.076 24.5298 126.256 24.35 126.256 24.1281V13.5854C126.256 9.7346 123.217 7.23496 118.894 7.23496ZM118.05 21.7261C116.496 21.7261 115.416 20.8479 115.416 19.5305C115.416 18.0442 116.598 17.0646 118.354 17.0646H122.17V17.3349C122.17 19.9021 120.65 21.7261 118.05 21.7261Z" fill="white"/>
<path d="M132.655 24.5298C132.877 24.5298 133.057 24.35 133.057 24.1281V1.20167C133.057 0.97984 132.877 0.800013 132.655 0.800013H129.339C129.117 0.800013 128.937 0.979839 128.937 1.20167V24.1281C128.937 24.35 129.117 24.5298 129.339 24.5298H132.655Z" fill="white"/>
<path d="M139.75 24.5298C139.972 24.5298 140.152 24.35 140.152 24.1281V8.10685C140.152 7.88502 139.972 7.70519 139.75 7.70519H136.4C136.178 7.70519 135.998 7.88502 135.998 8.10685V24.1281C135.998 24.35 136.178 24.5298 136.4 24.5298H139.75Z" fill="white"/>
<path d="M149.415 24.8C153.4 24.8 156 22.7057 156 19.4967C156 11.7951 146.544 15.8486 146.544 12.1667C146.544 11.0182 147.524 10.3426 149.01 10.3426C150.229 10.3426 151.565 11.038 151.943 12.4021C151.997 12.5938 152.162 12.7409 152.361 12.7409H155.375C155.605 12.7409 155.789 12.5475 155.761 12.3193C155.39 9.24543 152.721 7.23496 148.908 7.23496C145.396 7.23496 142.796 9.32926 142.796 12.3018C142.796 19.4967 152.116 15.8824 152.116 19.6656C152.116 20.679 151.036 21.4897 149.415 21.4897C147.698 21.4897 146.501 20.624 146.196 19.2126C146.152 19.0115 145.983 18.8549 145.777 18.8549H142.781C142.551 18.8549 142.366 19.0495 142.392 19.2786C142.776 22.68 145.457 24.8 149.415 24.8Z" fill="white"/>
<path d="M140.152 1.20167V4.5605C140.152 4.78233 139.972 4.96216 139.75 4.96216H136.4C136.178 4.96216 135.998 4.78233 135.998 4.5605V1.20167C135.998 0.979839 136.178 0.800012 136.4 0.800012H139.75C139.972 0.800012 140.152 0.97984 140.152 1.20167Z" fill="white"/>
<path d="M15.2456 17.4675L5.93112 12.7954L0.204696 15.6677C-0.0682321 15.8046 -0.0682319 16.1953 0.204696 16.3322L15.632 24.0705C15.8637 24.1867 16.1363 24.1867 16.368 24.0705L31.7953 16.3322C32.0682 16.1953 32.0682 15.8046 31.7953 15.6677L26.0689 12.7954L16.7544 17.4675C16.2795 17.7057 15.7205 17.7057 15.2456 17.4675Z" fill="#FF7040"/>
<path d="M15.2456 25.3098L5.93112 20.6377L0.204696 23.5101C-0.0682321 23.647 -0.0682319 24.0377 0.204696 24.1746L15.632 31.9128C15.8637 32.029 16.1363 32.029 16.368 31.9128L31.7953 24.1746C32.0682 24.0377 32.0682 23.647 31.7953 23.5101L26.0689 20.6377L16.7544 25.3098C16.2795 25.548 15.7205 25.548 15.2456 25.3098Z" fill="#FF7040"/>
<path d="M15.632 0.0868744L0.204697 7.80052C-0.0682314 7.93699 -0.0682326 8.32647 0.204695 8.46293L8.03177 12.3765C9.42176 13.0715 11.0578 13.0715 12.4478 12.3765L15.264 10.9684C15.7273 10.7367 16.2727 10.7367 16.736 10.9684L19.5522 12.3765C20.9422 13.0715 22.5782 13.0715 23.9682 12.3765L31.7953 8.46293C32.0682 8.32647 32.0682 7.93699 31.7953 7.80052L16.368 0.0868743C16.1363 -0.0289581 15.8637 -0.0289581 15.632 0.0868744Z" fill="#FF7040"/>
</svg>
